<?xml version="1.0" ?>
<svg id="Layer_1" style="enable-background:new 0 0 66 66;" version="1.1" viewBox="0 0 66 66" xml:space="preserve" xmlns="http://www.w3.org/2000/svg" xmlns:xlink="http://www.w3.org/1999/xlink">
  <g>
    <path d="M41,35.42v13.57h8v-28C44.02,24.1,41,29.56,41,35.42z" fill="#222323"/>
    <path d="M42.39,57.65c-0.39,0.89-0.5,1.92-0.24,3.01c0.12,0.49,0.33,0.96,0.6,1.38c0.84,1.3,2.37,1.98,3.92,1.97   C47.96,64,49,62.95,49,61.66V50.99h-4.75C44.04,53.33,43.45,55.22,42.39,57.65z M46,58.99c0.55,0,1,0.45,1,1c0,0.55-0.45,1-1,1   s-1-0.45-1-1C45,59.44,45.45,58.99,46,58.99z" fill="#222323"/>
    <path d="M60,1.99H6c-2.21,0-4,1.79-4,4v32c0,2.21,1.79,4,4,4h33v-6.57c0-6.6,3.34-12.63,8.94-16.13L51,17.38v24.61h9   c2.21,0,4-1.79,4-4v-32C64,3.78,62.21,1.99,60,1.99z M13,28.99c0,1.66-1.34,3-3,3s-3-1.34-3-3v-14c0-1.66,1.34-3,3-3s3,1.34,3,3   V28.99z" fill="#222323"/>
  </g>
</svg>
